<svg width="100" height="100" viewBox="0 0 100 100" fill="none" xmlns="http://www.w3.org/2000/svg">
<path d="M25.0001 79.3751L33.2292 76.0417C32.5348 74.0279 31.8924 71.9792 31.3022 69.8959C30.7119 67.8126 30.2431 65.7292 29.8959 63.6459L25.0001 66.9792V79.3751ZM41.6667 75.0001H58.3334C59.5834 72.2223 60.5904 68.8369 61.3543 64.8438C62.1181 60.8508 62.5001 56.7709 62.5001 52.6042C62.5001 45.7292 61.3543 39.2188 59.0626 33.073C56.7709 26.9272 53.7501 22.1876 50.0001 18.8542C46.2501 22.1876 43.2292 26.9272 40.9376 33.073C38.6459 39.2188 37.5001 45.7292 37.5001 52.6042C37.5001 56.7709 37.882 60.8508 38.6459 64.8438C39.4098 68.8369 40.4167 72.2223 41.6667 75.0001ZM50.0001 54.1667C47.7084 54.1667 45.7466 53.3508 44.1147 51.7188C42.4827 50.0869 41.6667 48.1251 41.6667 45.8334C41.6667 43.5417 42.4827 41.5799 44.1147 39.948C45.7466 38.3161 47.7084 37.5001 50.0001 37.5001C52.2917 37.5001 54.2536 38.3161 55.8855 39.948C57.5174 41.5799 58.3334 43.5417 58.3334 45.8334C58.3334 48.1251 57.5174 50.0869 55.8855 51.7188C54.2536 53.3508 52.2917 54.1667 50.0001 54.1667ZM75.0001 79.3751V66.9792L70.1043 63.6459C69.757 65.7292 69.2883 67.8126 68.698 69.8959C68.1077 71.9792 67.4654 74.0279 66.7709 76.0417L75.0001 79.3751ZM50.0001 8.22925C56.8751 13.2292 62.0661 19.5834 65.573 27.2917C69.0799 35.0001 70.8334 43.9584 70.8334 54.1667L79.5834 60.0001C80.764 60.764 81.6841 61.7709 82.3438 63.0209C83.0036 64.2709 83.3334 65.5904 83.3334 66.9792V91.6667L62.6043 83.3334H37.3959L16.6667 91.6667V66.9792C16.6667 65.5904 16.9966 64.2709 17.6563 63.0209C18.3161 61.7709 19.2362 60.764 20.4167 60.0001L29.1667 54.1667C29.1667 43.9584 30.9202 35.0001 34.4272 27.2917C37.9341 19.5834 43.1251 13.2292 50.0001 8.22925Z" fill="black"/>
</svg>
