<svg width="46" height="31" viewBox="0 0 46 31" fill="none" xmlns="http://www.w3.org/2000/svg">
<path d="M45.0388 4.85045C44.5098 2.94121 42.951 1.43754 40.9719 0.927255C37.3846 0 23 0 23 0C23 0 8.61547 0 5.0281 0.927255C3.04898 1.43762 1.49025 2.94121 0.961215 4.85045C0 8.31107 0 15.5313 0 15.5313C0 15.5313 0 22.7516 0.961215 26.2122C1.49025 28.1214 3.04898 29.5625 5.0281 30.0727C8.61547 31 23 31 23 31C23 31 37.3845 31 40.9719 30.0727C42.951 29.5625 44.5098 28.1214 45.0388 26.2122C46 22.7516 46 15.5313 46 15.5313C46 15.5313 46 8.31107 45.0388 4.85045ZM18.2954 22.0868V8.97587L30.3181 15.5315L18.2954 22.0868Z" fill="white"/>
</svg>
