<svg width="100" height="100" viewBox="0 0 100 100" fill="none" xmlns="http://www.w3.org/2000/svg">
<path d="M23.5416 41.7709L31.6666 45.2084C32.6388 43.264 33.6458 41.389 34.6875 39.5834C35.7291 37.7778 36.875 35.9723 38.125 34.1667L32.2916 33.0209L23.5416 41.7709ZM38.3333 50.4167L50.2083 62.1876C53.125 61.0765 56.25 59.3751 59.5833 57.0834C62.9166 54.7917 66.0416 52.1876 68.9583 49.2709C73.8194 44.4098 77.6215 39.0105 80.3645 33.073C83.1076 27.1355 84.3055 21.6667 83.9583 16.6667C78.9583 16.3195 73.4722 17.5174 67.5 20.2605C61.5277 23.0035 56.1111 26.8056 51.25 31.6667C48.3333 34.5834 45.7291 37.7084 43.4375 41.0417C41.1458 44.3751 39.4444 47.5001 38.3333 50.4167ZM56.875 43.6459C55.2777 42.0487 54.4791 40.0869 54.4791 37.7605C54.4791 35.4341 55.2777 33.4723 56.875 31.8751C58.4722 30.2779 60.4514 29.4792 62.8125 29.4792C65.1736 29.4792 67.1527 30.2779 68.75 31.8751C70.3472 33.4723 71.1458 35.4341 71.1458 37.7605C71.1458 40.0869 70.3472 42.0487 68.75 43.6459C67.1527 45.2431 65.1736 46.0417 62.8125 46.0417C60.4514 46.0417 58.4722 45.2431 56.875 43.6459ZM58.8541 77.0834L67.6041 68.3334L66.4583 62.5001C64.6527 63.7501 62.8472 64.8785 61.0416 65.8855C59.2361 66.8924 57.3611 67.882 55.4166 68.8542L58.8541 77.0834ZM91.4583 9.06257C92.7777 17.4654 91.9618 25.6424 89.0104 33.5938C86.059 41.5452 80.9722 49.132 73.75 56.3542L75.8333 66.6667C76.1111 68.0556 76.0416 69.4098 75.625 70.7292C75.2083 72.0487 74.5139 73.1945 73.5416 74.1667L56.0416 91.6667L47.2916 71.1459L29.4791 53.3334L8.95829 44.5834L26.3541 27.0834C27.3263 26.1112 28.4895 25.4167 29.8437 25.0001C31.1979 24.5834 32.5694 24.514 33.9583 24.7917L44.2708 26.8751C51.493 19.6529 59.0625 14.5487 66.9791 11.5626C74.8958 8.57646 83.0555 7.74313 91.4583 9.06257ZM16.3541 66.5626C18.7847 64.132 21.7534 62.8994 25.2604 62.8647C28.7673 62.8299 31.7361 64.0278 34.1666 66.4584C36.5972 68.889 37.7951 71.8577 37.7604 75.3647C37.7257 78.8716 36.493 81.8403 34.0625 84.2709C32.3263 86.007 29.427 87.5001 25.3645 88.7501C21.302 90.0001 15.6944 91.1112 8.54163 92.0834C9.51385 84.9306 10.625 79.323 11.875 75.2605C13.125 71.198 14.618 68.2987 16.3541 66.5626ZM22.2916 72.3959C21.5972 73.0903 20.9027 74.3577 20.2083 76.198C19.5138 78.0383 19.0277 79.8959 18.75 81.7709C20.625 81.4931 22.4826 81.0244 24.3229 80.3647C26.1632 79.7049 27.4305 79.0278 28.125 78.3334C28.9583 77.5001 29.4097 76.4931 29.4791 75.3126C29.5486 74.132 29.1666 73.1251 28.3333 72.2917C27.5 71.4584 26.493 71.0591 25.3125 71.0938C24.1319 71.1285 23.125 71.5626 22.2916 72.3959Z" fill="black"/>
</svg>
