<svg width="32" height="21" viewBox="0 0 32 21" fill="none" xmlns="http://www.w3.org/2000/svg">
<path d="M31.8067 9.70156C28.7939 3.91508 22.8295 0 16 0C9.17054 0 3.20442 3.91781 0.193303 9.70211C0.0662152 9.94958 0 10.223 0 10.5003C0 10.7776 0.0662152 11.051 0.193303 11.2984C3.20609 17.0849 9.17054 21 16 21C22.8295 21 28.7956 17.0822 31.8067 11.2979C31.9338 11.0504 32 10.777 32 10.4997C32 10.2224 31.9338 9.94903 31.8067 9.70156ZM16 18.375C14.4177 18.375 12.871 17.9131 11.5554 17.0478C10.2398 16.1825 9.21445 14.9526 8.60895 13.5136C8.00345 12.0747 7.84502 10.4913 8.1537 8.96366C8.46239 7.43606 9.22431 6.03287 10.3431 4.93153C11.462 3.8302 12.8874 3.08017 14.4393 2.77632C15.9911 2.47246 17.5997 2.62841 19.0615 3.22445C20.5233 3.82049 21.7727 4.82985 22.6518 6.12488C23.5308 7.41992 24 8.94247 24 10.5C24.0005 11.5343 23.7939 12.5586 23.3921 13.5142C22.9902 14.4699 22.401 15.3382 21.658 16.0696C20.915 16.8009 20.0329 17.381 19.0621 17.7766C18.0912 18.1722 17.0507 18.3755 16 18.375ZM16 5.25C15.524 5.25655 15.051 5.32627 14.5939 5.45727C14.9707 5.96131 15.1515 6.58158 15.1035 7.20559C15.0556 7.82961 14.782 8.41605 14.3325 8.85855C13.883 9.30106 13.2872 9.57033 12.6533 9.61754C12.0194 9.66475 11.3893 9.48676 10.8772 9.11586C10.5856 10.1733 10.6383 11.2941 11.0277 12.3205C11.4171 13.347 12.1238 14.2274 13.0481 14.8378C13.9725 15.4482 15.068 15.7579 16.1805 15.7233C17.2931 15.6887 18.3666 15.3116 19.2499 14.6449C20.1333 13.9783 20.7821 13.0558 21.1049 12.0072C21.4278 10.9586 21.4084 9.83674 21.0496 8.79953C20.6908 7.76233 20.0106 6.86199 19.1048 6.22525C18.199 5.58851 17.1131 5.24742 16 5.25Z" fill="white"/>
</svg>
