<svg width="94" height="94" viewBox="0 0 94 94" fill="none" xmlns="http://www.w3.org/2000/svg">
<path d="M15.6667 78.3334C13.5125 78.3334 11.6684 77.5664 10.1344 76.0324C8.60035 74.4983 7.83333 72.6543 7.83333 70.5001V23.5001C7.83333 21.3459 8.60035 19.5018 10.1344 17.9678C11.6684 16.4338 13.5125 15.6667 15.6667 15.6667H78.3333C80.4875 15.6667 82.3316 16.4338 83.8656 17.9678C85.3997 19.5018 86.1667 21.3459 86.1667 23.5001V70.5001C86.1667 72.6543 85.3997 74.4983 83.8656 76.0324C82.3316 77.5664 80.4875 78.3334 78.3333 78.3334H15.6667ZM15.6667 70.5001H56.7917V56.7917H15.6667V70.5001ZM64.625 70.5001H78.3333V35.2501H64.625V70.5001ZM15.6667 48.9584H56.7917V35.2501H15.6667V48.9584Z" fill="black"/>
</svg>
