<svg width="95" height="95" viewBox="0 0 95 95" fill="none" xmlns="http://www.w3.org/2000/svg">
<path d="M74.8125 83.125L53.1406 61.4531L61.4531 53.1406L83.125 74.8125L74.8125 83.125ZM20.1875 83.125L11.875 74.8125L39.1875 47.5L32.4583 40.7708L29.6875 43.5416L24.6406 38.4947V46.6093L21.8698 49.3802L9.89583 37.4062L12.6667 34.6354H20.7812L15.8333 29.6875L29.8854 15.6354C31.2049 14.3159 32.6233 13.3593 34.1406 12.7656C35.658 12.1718 37.2083 11.875 38.7917 11.875C40.375 11.875 41.9253 12.1718 43.4427 12.7656C44.9601 13.3593 46.3785 14.3159 47.6979 15.6354L38.5937 24.7395L43.5417 29.6875L40.7708 32.4583L47.5 39.1875L56.4062 30.2812C56.1424 29.5555 55.9279 28.7968 55.763 28.0052C55.5981 27.2135 55.5156 26.4218 55.5156 25.6302C55.5156 21.7378 56.8516 18.4557 59.5234 15.7838C62.1953 13.1119 65.4774 11.776 69.3698 11.776C70.3594 11.776 71.2995 11.875 72.1901 12.0729C73.0807 12.2708 73.9878 12.5677 74.9115 12.9635L65.1146 22.7604L72.2396 29.8854L82.0365 20.0885C82.4983 21.0121 82.8116 21.9192 82.9766 22.8099C83.1415 23.7005 83.224 24.6406 83.224 25.6302C83.224 29.5225 81.888 32.8046 79.2161 35.4765C76.5443 38.1484 73.2621 39.4843 69.3698 39.4843C68.5781 39.4843 67.7865 39.4184 66.9948 39.2864C66.2031 39.1545 65.4444 38.9236 64.7187 38.5937L20.1875 83.125Z" fill="black"/>
</svg>
