<svg width="104" height="104" viewBox="0 0 104 104" fill="none" xmlns="http://www.w3.org/2000/svg">
<path d="M17.3333 60.6666V51.9999H47.6667V60.6666H17.3333ZM17.3333 43.3333V34.6666H65V43.3333H17.3333ZM17.3333 25.9999V17.3333H65V25.9999H17.3333ZM56.3333 86.6666V73.3416L80.275 49.5083C80.925 48.8583 81.6472 48.3888 82.4417 48.0999C83.2361 47.811 84.0306 47.6666 84.825 47.6666C85.6917 47.6666 86.5222 47.8291 87.3167 48.1541C88.1111 48.4791 88.8333 48.9666 89.4833 49.6166L93.4917 53.6249C94.0695 54.2749 94.5208 54.9971 94.8458 55.7916C95.1708 56.586 95.3333 57.3805 95.3333 58.1749C95.3333 58.9694 95.1889 59.7819 94.9 60.6124C94.6111 61.443 94.1417 62.1833 93.4917 62.8333L69.6583 86.6666H56.3333ZM62.8333 80.1666H66.95L80.0583 66.9499L78.1083 64.8916L76.05 62.9416L62.8333 76.0499V80.1666ZM78.1083 64.8916L76.05 62.9416L80.0583 66.9499L78.1083 64.8916Z" fill="black"/>
</svg>
