<svg width="112" height="112" viewBox="0 0 112 112" fill="none" xmlns="http://www.w3.org/2000/svg">
<path d="M23.3333 102.667C20.7667 102.667 18.5694 101.753 16.7417 99.9249C14.9139 98.0971 14 95.8999 14 93.3333V27.9999C14 25.4333 14.9139 23.236 16.7417 21.4083C18.5694 19.5805 20.7667 18.6666 23.3333 18.6666H28V9.33325H37.3333V18.6666H74.6667V9.33325H84V18.6666H88.6667C91.2333 18.6666 93.4306 19.5805 95.2583 21.4083C97.0861 23.236 98 25.4333 98 27.9999V93.3333C98 95.8999 97.0861 98.0971 95.2583 99.9249C93.4306 101.753 91.2333 102.667 88.6667 102.667H23.3333ZM23.3333 93.3333H88.6667V46.6666H23.3333V93.3333ZM23.3333 37.3333H88.6667V27.9999H23.3333V37.3333ZM56 65.3333C54.6778 65.3333 53.5694 64.886 52.675 63.9916C51.7806 63.0971 51.3333 61.9888 51.3333 60.6666C51.3333 59.3444 51.7806 58.236 52.675 57.3416C53.5694 56.4471 54.6778 55.9999 56 55.9999C57.3222 55.9999 58.4306 56.4471 59.325 57.3416C60.2194 58.236 60.6667 59.3444 60.6667 60.6666C60.6667 61.9888 60.2194 63.0971 59.325 63.9916C58.4306 64.886 57.3222 65.3333 56 65.3333ZM37.3333 65.3333C36.0111 65.3333 34.9028 64.886 34.0083 63.9916C33.1139 63.0971 32.6667 61.9888 32.6667 60.6666C32.6667 59.3444 33.1139 58.236 34.0083 57.3416C34.9028 56.4471 36.0111 55.9999 37.3333 55.9999C38.6556 55.9999 39.7639 56.4471 40.6583 57.3416C41.5528 58.236 42 59.3444 42 60.6666C42 61.9888 41.5528 63.0971 40.6583 63.9916C39.7639 64.886 38.6556 65.3333 37.3333 65.3333ZM74.6667 65.3333C73.3444 65.3333 72.2361 64.886 71.3417 63.9916C70.4472 63.0971 70 61.9888 70 60.6666C70 59.3444 70.4472 58.236 71.3417 57.3416C72.2361 56.4471 73.3444 55.9999 74.6667 55.9999C75.9889 55.9999 77.0972 56.4471 77.9917 57.3416C78.8861 58.236 79.3333 59.3444 79.3333 60.6666C79.3333 61.9888 78.8861 63.0971 77.9917 63.9916C77.0972 64.886 75.9889 65.3333 74.6667 65.3333ZM56 83.9999C54.6778 83.9999 53.5694 83.5527 52.675 82.6582C51.7806 81.7638 51.3333 80.6555 51.3333 79.3333C51.3333 78.011 51.7806 76.9027 52.675 76.0083C53.5694 75.1138 54.6778 74.6666 56 74.6666C57.3222 74.6666 58.4306 75.1138 59.325 76.0083C60.2194 76.9027 60.6667 78.011 60.6667 79.3333C60.6667 80.6555 60.2194 81.7638 59.325 82.6582C58.4306 83.5527 57.3222 83.9999 56 83.9999ZM37.3333 83.9999C36.0111 83.9999 34.9028 83.5527 34.0083 82.6582C33.1139 81.7638 32.6667 80.6555 32.6667 79.3333C32.6667 78.011 33.1139 76.9027 34.0083 76.0083C34.9028 75.1138 36.0111 74.6666 37.3333 74.6666C38.6556 74.6666 39.7639 75.1138 40.6583 76.0083C41.5528 76.9027 42 78.011 42 79.3333C42 80.6555 41.5528 81.7638 40.6583 82.6582C39.7639 83.5527 38.6556 83.9999 37.3333 83.9999ZM74.6667 83.9999C73.3444 83.9999 72.2361 83.5527 71.3417 82.6582C70.4472 81.7638 70 80.6555 70 79.3333C70 78.011 70.4472 76.9027 71.3417 76.0083C72.2361 75.1138 73.3444 74.6666 74.6667 74.6666C75.9889 74.6666 77.0972 75.1138 77.9917 76.0083C78.8861 76.9027 79.3333 78.011 79.3333 79.3333C79.3333 80.6555 78.8861 81.7638 77.9917 82.6582C77.0972 83.5527 75.9889 83.9999 74.6667 83.9999Z" fill="black"/>
</svg>
