<svg width="29" height="29" viewBox="0 0 29 29" fill="none" xmlns="http://www.w3.org/2000/svg">
<path d="M7.24992 26.5834C6.58534 26.5834 6.01641 26.3468 5.54315 25.8735C5.06988 25.4003 4.83325 24.8313 4.83325 24.1667V9.66675C4.83325 9.00216 5.06988 8.43324 5.54315 7.95998C6.01641 7.48671 6.58534 7.25008 7.24992 7.25008H9.66659C9.66659 5.92091 10.1398 4.78307 11.0864 3.83654C12.0329 2.89001 13.1708 2.41675 14.4999 2.41675C15.8291 2.41675 16.9669 2.89001 17.9135 3.83654C18.86 4.78307 19.3333 5.92091 19.3333 7.25008H21.7499C22.4145 7.25008 22.9834 7.48671 23.4567 7.95998C23.93 8.43324 24.1666 9.00216 24.1666 9.66675V24.1667C24.1666 24.8313 23.93 25.4003 23.4567 25.8735C22.9834 26.3468 22.4145 26.5834 21.7499 26.5834H7.24992ZM7.24992 24.1667H21.7499V9.66675H19.3333V12.0834C19.3333 12.4258 19.2175 12.7128 18.9859 12.9444C18.7543 13.1759 18.4673 13.2917 18.1249 13.2917C17.7826 13.2917 17.4956 13.1759 17.264 12.9444C17.0324 12.7128 16.9166 12.4258 16.9166 12.0834V9.66675H12.0833V12.0834C12.0833 12.4258 11.9675 12.7128 11.7359 12.9444C11.5043 13.1759 11.2173 13.2917 10.8749 13.2917C10.5326 13.2917 10.2456 13.1759 10.014 12.9444C9.78238 12.7128 9.66659 12.4258 9.66659 12.0834V9.66675H7.24992V24.1667ZM12.0833 7.25008H16.9166C16.9166 6.5855 16.68 6.01657 16.2067 5.54331C15.7334 5.07005 15.1645 4.83341 14.4999 4.83341C13.8353 4.83341 13.2664 5.07005 12.7931 5.54331C12.3199 6.01657 12.0833 6.5855 12.0833 7.25008Z" fill="black"/>
</svg>
