<svg width="98" height="98" viewBox="0 0 98 98" fill="none" xmlns="http://www.w3.org/2000/svg">
<path d="M24.5 89.8334V72.2751C20.6208 68.7362 17.6094 64.6018 15.4656 59.872C13.3219 55.1421 12.25 50.157 12.25 44.9167C12.25 34.7084 15.8229 26.0313 22.9688 18.8855C30.1146 11.7397 38.7917 8.16675 49 8.16675C57.5069 8.16675 65.0441 10.6678 71.6115 15.6699C78.1788 20.672 82.4493 27.1883 84.4229 35.2188L89.7312 56.1459C90.0715 57.439 89.8333 58.6129 89.0167 59.6678C88.2 60.7227 87.1111 61.2501 85.75 61.2501H77.5833V73.5001C77.5833 75.7459 76.7837 77.6685 75.1844 79.2678C73.5851 80.8671 71.6625 81.6667 69.4167 81.6667H61.25V89.8334H53.0833V73.5001H69.4167V53.0834H80.4417L76.5625 37.2605C74.9972 31.0674 71.6625 26.0313 66.5583 22.1522C61.4542 18.273 55.6014 16.3334 49 16.3334C41.1056 16.3334 34.3681 19.0897 28.7875 24.6022C23.2069 30.1147 20.4167 36.8181 20.4167 44.7126C20.4167 48.7959 21.2503 52.6751 22.9177 56.3501C24.5851 60.0251 26.95 63.2917 30.0125 66.1501L32.6667 68.6001V89.8334H24.5ZM44.9167 61.2501H53.0833L53.6958 56.1459C54.2403 55.9417 54.7337 55.7036 55.176 55.4313C55.6184 55.1591 56.0097 54.8529 56.35 54.5126L61.0458 56.5542L65.1292 49.6126L61.0458 46.5501C61.1819 46.0056 61.25 45.4612 61.25 44.9167C61.25 44.3723 61.1819 43.8279 61.0458 43.2834L65.1292 40.2209L61.0458 33.2792L56.35 35.3209C56.0097 34.9806 55.6184 34.6744 55.176 34.4022C54.7337 34.1299 54.2403 33.8917 53.6958 33.6876L53.0833 28.5834H44.9167L44.3042 33.6876C43.7597 33.8917 43.2663 34.1299 42.824 34.4022C42.3816 34.6744 41.9903 34.9806 41.65 35.3209L36.9542 33.2792L32.8708 40.2209L36.9542 43.2834C36.8181 43.8279 36.75 44.3723 36.75 44.9167C36.75 45.4612 36.8181 46.0056 36.9542 46.5501L32.8708 49.6126L36.9542 56.5542L41.65 54.5126C41.9903 54.8529 42.3816 55.1591 42.824 55.4313C43.2663 55.7036 43.7597 55.9417 44.3042 56.1459L44.9167 61.2501ZM49 51.0417C47.2986 51.0417 45.8524 50.4463 44.6615 49.2553C43.4705 48.0643 42.875 46.6181 42.875 44.9167C42.875 43.2154 43.4705 41.7692 44.6615 40.5782C45.8524 39.3872 47.2986 38.7917 49 38.7917C50.7014 38.7917 52.1476 39.3872 53.3385 40.5782C54.5295 41.7692 55.125 43.2154 55.125 44.9167C55.125 46.6181 54.5295 48.0643 53.3385 49.2553C52.1476 50.4463 50.7014 51.0417 49 51.0417Z" fill="black"/>
</svg>
