<svg width="112" height="112" viewBox="0 0 112 112" fill="none" xmlns="http://www.w3.org/2000/svg">
<path d="M56 102.667C49.5444 102.667 43.4778 101.442 37.8 98.9917C32.1222 96.5417 27.1833 93.2167 22.9833 89.0167C18.7833 84.8167 15.4583 79.8778 13.0083 74.2C10.5583 68.5223 9.33331 62.4556 9.33331 56C9.33331 49.5445 10.5583 43.4778 13.0083 37.8C15.4583 32.1223 18.7833 27.1834 22.9833 22.9834C27.1833 18.7834 32.1222 15.4584 37.8 13.0084C43.4778 10.5584 49.5444 9.33337 56 9.33337C62.4555 9.33337 68.5222 10.5584 74.2 13.0084C79.8778 15.4584 84.8166 18.7834 89.0166 22.9834C93.2166 27.1834 96.5416 32.1223 98.9916 37.8C101.442 43.4778 102.667 49.5445 102.667 56C102.667 62.4556 101.442 68.5223 98.9916 74.2C96.5416 79.8778 93.2166 84.8167 89.0166 89.0167C84.8166 93.2167 79.8778 96.5417 74.2 98.9917C68.5222 101.442 62.4555 102.667 56 102.667ZM56 93.3334C66.4222 93.3334 75.25 89.7167 82.4833 82.4834C89.7166 75.25 93.3333 66.4223 93.3333 56C93.3333 55.4556 93.3139 54.8917 93.275 54.3084C93.2361 53.725 93.2166 53.2389 93.2166 52.85C92.8278 55.1056 91.7778 56.9723 90.0666 58.45C88.3555 59.9278 86.3333 60.6667 84 60.6667H74.6666C72.1 60.6667 69.9028 59.7528 68.075 57.925C66.2472 56.0973 65.3333 53.9 65.3333 51.3334V46.6667H46.6666V37.3334C46.6666 34.7667 47.5805 32.5695 49.4083 30.7417C51.2361 28.9139 53.4333 28 56 28H60.6666C60.6666 26.2112 61.1528 24.6362 62.125 23.275C63.0972 21.9139 64.2833 20.8056 65.6833 19.95C64.1278 19.5612 62.5528 19.25 60.9583 19.0167C59.3639 18.7834 57.7111 18.6667 56 18.6667C45.5778 18.6667 36.75 22.2834 29.5166 29.5167C22.2833 36.75 18.6666 45.5778 18.6666 56H42C47.1333 56 51.5278 57.8278 55.1833 61.4834C58.8389 65.1389 60.6666 69.5334 60.6666 74.6667V79.3334H46.6666V92.1667C48.2222 92.5556 49.7583 92.8473 51.275 93.0417C52.7916 93.2361 54.3666 93.3334 56 93.3334Z" fill="black"/>
</svg>
