<svg width="89" height="89" viewBox="0 0 89 89" fill="none" xmlns="http://www.w3.org/2000/svg">
<path d="M44.5 81.5834C42.4604 81.5834 40.7144 80.8572 39.262 79.4048C37.8095 77.9523 37.0833 76.2063 37.0833 74.1668H51.9167C51.9167 76.2063 51.1905 77.9523 49.738 79.4048C48.2856 80.8572 46.5396 81.5834 44.5 81.5834ZM29.6667 70.4584V63.0418H59.3333V70.4584H29.6667ZM30.5938 59.3334C26.3292 56.7994 22.9453 53.4001 20.4422 49.1355C17.9391 44.8709 16.6875 40.2355 16.6875 35.2292C16.6875 27.5036 19.3915 20.9367 24.7995 15.5287C30.2075 10.1207 36.7743 7.41675 44.5 7.41675C52.2257 7.41675 58.7925 10.1207 64.2005 15.5287C69.6085 20.9367 72.3125 27.5036 72.3125 35.2292C72.3125 40.2355 71.0609 44.8709 68.5578 49.1355C66.0547 53.4001 62.6708 56.7994 58.4062 59.3334H30.5938ZM32.8188 51.9168H56.1813C58.9625 49.939 61.1102 47.4977 62.6245 44.5928C64.1387 41.6879 64.8958 38.5668 64.8958 35.2292C64.8958 29.5431 62.9181 24.7223 58.9625 20.7667C55.0069 16.8112 50.1861 14.8334 44.5 14.8334C38.8139 14.8334 33.9931 16.8112 30.0375 20.7667C26.0819 24.7223 24.1042 29.5431 24.1042 35.2292C24.1042 38.5668 24.8613 41.6879 26.3755 44.5928C27.8898 47.4977 30.0375 49.939 32.8188 51.9168Z" fill="black"/>
</svg>
